AB28_05Apr_ss_11ms_01
version=1
nRows=37
nColumns=19
inDegrees=yes
endheader
time	ground_force1_vx	ground_force1_vy	ground_force1_vz	ground_force1_px	ground_force1_py	ground_force1_pz	ground_torque1_x	ground_torque1_y	ground_torque1_z	ground_force2_vx	ground_force2_vy	ground_force2_vz	ground_force2_px	ground_force2_py	ground_force2_pz	ground_torque2_x	ground_torque2_y	ground_torque2_z
26.696000	53.529053	756.256531	-79.421082	0.374624	0.000000	-0.621514	0.000028	0.075057	0.000012	-0.000000	-0.000000	0.000000	0.727500	0.000000	-0.812500	0.000000	0.000000	-0.000000	
26.697000	55.207520	752.623718	-78.810730	0.376432	0.000000	-0.615476	0.000041	1.354230	0.000018	-0.000000	-0.000000	0.000000	0.727500	0.000000	-0.812500	0.000000	0.000000	-0.000000	
26.698000	61.768799	746.569031	-80.031433	0.384134	0.000000	-0.612659	0.000030	3.692839	0.000014	-0.000000	-0.000000	0.000000	0.727500	0.000000	-0.812500	0.000000	0.000000	-0.000000	
26.699000	60.242920	745.055359	-83.540955	0.384023	0.000000	-0.615534	0.000023	3.718108	0.000006	-0.000000	-0.000000	0.000000	0.727500	0.000000	-0.812500	0.000000	0.000000	-0.000000	
26.700000	57.343750	751.715515	-86.134949	0.377968	0.000000	-0.619451	0.000050	1.235970	-0.000003	-0.000000	-0.000000	0.000000	0.727500	0.000000	-0.812500	0.000000	0.000000	-0.000000	
26.701000	52.766113	758.678406	-83.846130	0.373525	0.000000	-0.620170	0.000005	-0.621866	-0.000001	-0.000000	-0.000000	0.000000	0.727500	0.000000	-0.812500	0.000000	0.000000	-0.000000	
26.702000	52.918701	766.246765	-82.015076	0.373595	0.000000	-0.620385	0.000031	-1.650251	0.000039	-0.000000	-0.000000	0.000000	0.727500	0.000000	-0.812500	0.000000	0.000000	-0.000000	
26.703000	54.902344	769.576843	-83.540955	0.374665	0.000000	-0.618963	0.000029	-3.119892	-0.000003	-0.000000	-0.000000	0.000000	0.727500	0.000000	-0.812500	0.000000	0.000000	-0.000000	
26.704000	55.817871	766.852234	-86.897888	0.376671	0.000000	-0.614827	0.000015	-3.000261	0.000004	-0.000000	-0.000000	0.000000	0.727500	0.000000	-0.812500	0.000000	0.000000	-0.000000	
26.705000	62.226563	758.981140	-88.728943	0.382815	0.000000	-0.605840	-0.000023	-1.728419	0.000017	-0.000000	-0.000000	0.000000	0.727500	0.000000	-0.812500	0.000000	0.000000	-0.000000	
26.706000	60.090332	752.320984	-92.696228	0.383259	0.000000	-0.601194	0.000025	-2.013088	0.000027	-0.000000	-0.000000	0.000000	0.727500	0.000000	-0.812500	0.000000	0.000000	-0.000000	
26.707000	53.071289	751.715515	-97.579041	0.378066	0.000000	-0.604586	-0.000005	-3.322551	0.000036	-0.000000	-0.000000	0.000000	0.727500	0.000000	-0.812500	0.000000	0.000000	-0.000000	
26.708000	51.087646	757.467468	-100.630798	0.374610	0.000000	-0.607372	0.000030	-3.900964	0.000017	-0.000000	-0.000000	0.000000	0.727500	0.000000	-0.812500	0.000000	0.000000	-0.000000	
26.709000	53.376465	763.219421	-99.257507	0.376915	0.000000	-0.612024	0.000001	-3.261636	0.000022	-0.000000	-0.000000	0.000000	0.727500	0.000000	-0.812500	0.000000	0.000000	-0.000000	
26.710000	55.665283	770.787781	-94.679871	0.376951	0.000000	-0.611057	0.000037	-2.302294	0.000023	-0.000000	-0.000000	0.000000	0.727500	0.000000	-0.812500	0.000000	0.000000	-0.000000	
26.711000	55.207520	776.237000	-91.780701	0.376969	0.000000	-0.614591	0.000060	-1.355761	0.000027	-0.000000	-0.000000	0.000000	0.727500	0.000000	-0.812500	0.000000	0.000000	-0.000000	
26.712000	57.191162	775.934265	-89.034119	0.379495	0.000000	-0.610448	-0.000014	0.513737	0.000012	-0.000000	-0.000000	0.000000	0.727500	0.000000	-0.812500	0.000000	0.000000	-0.000000	
26.713000	58.717041	772.301453	-87.203064	0.379942	0.000000	-0.605456	-0.000026	-0.170213	0.000014	-0.000000	-0.000000	0.000000	0.727500	0.000000	-0.812500	0.000000	0.000000	-0.000000	
26.714000	55.512695	765.338562	-89.186707	0.378284	0.000000	-0.600808	0.000036	0.192344	0.000020	-0.000000	-0.000000	0.000000	0.727500	0.000000	-0.812500	0.000000	0.000000	-0.000000	
26.715000	53.529053	757.467468	-91.475525	0.378315	0.000000	-0.594543	0.000010	0.146698	0.000026	-0.000000	-0.000000	0.000000	0.727500	0.000000	-0.812500	0.000000	0.000000	-0.000000	
26.716000	54.902344	753.834656	-92.391052	0.381216	0.000000	-0.588063	-0.000023	-1.164498	0.000017	-0.000000	-0.000000	0.000000	0.727500	0.000000	-0.812500	0.000000	0.000000	-0.000000	
26.717000	57.496338	759.586609	-94.679871	0.380663	0.000000	-0.592885	0.000037	-2.269066	0.000006	-0.000000	-0.000000	0.000000	0.727500	0.000000	-0.812500	0.000000	0.000000	-0.000000	
26.718000	57.496338	771.090515	-95.595398	0.378336	0.000000	-0.602627	0.000049	-2.092760	0.000019	-0.000000	-0.000000	0.000000	0.727500	0.000000	-0.812500	0.000000	0.000000	-0.000000	
26.719000	60.700684	782.594421	-97.121277	0.377398	0.000000	-0.604322	0.000061	-2.419735	0.000032	-0.000000	-0.000000	0.000000	0.727500	0.000000	-0.812500	0.000000	0.000000	-0.000000	
26.720000	61.463623	784.108093	-99.104919	0.377894	0.000000	-0.603775	-0.000028	-3.636319	0.000027	-0.000000	-0.000000	0.000000	0.727500	0.000000	-0.812500	0.000000	0.000000	-0.000000	
26.721000	56.428223	779.264343	-103.377380	0.376642	0.000000	-0.602228	0.000005	-3.418269	0.000022	-0.000000	-0.000000	0.000000	0.727500	0.000000	-0.812500	0.000000	0.000000	-0.000000	
26.722000	55.512695	771.695984	-106.429138	0.378230	0.000000	-0.596802	0.000026	-5.153478	0.000014	-0.000000	-0.000000	0.000000	0.727500	0.000000	-0.812500	0.000000	0.000000	-0.000000	
26.723000	58.259277	765.944031	-106.734314	0.381553	0.000000	-0.589550	0.000036	-5.655917	0.000023	-0.000000	-0.000000	0.000000	0.727500	0.000000	-0.812500	0.000000	0.000000	-0.000000	
26.724000	58.259277	767.457703	-107.344666	0.379838	0.000000	-0.589336	0.000019	-3.153287	0.000012	-0.000000	-0.000000	0.000000	0.727500	0.000000	-0.812500	0.000000	0.000000	-0.000000	
26.725000	59.022217	773.209656	-106.734314	0.377394	0.000000	-0.591864	0.000022	-1.559187	0.000011	-0.000000	-0.000000	0.000000	0.727500	0.000000	-0.812500	0.000000	0.000000	-0.000000	
26.726000	60.395508	773.815125	-104.140320	0.379199	0.000000	-0.590145	0.000024	1.335293	0.000018	-0.000000	-0.000000	0.000000	0.727500	0.000000	-0.812500	0.000000	0.000000	-0.000000	
26.727000	64.057617	771.695984	-102.309265	0.382441	0.000000	-0.588933	0.000038	1.940945	-0.000002	-0.000000	-0.000000	0.000000	0.727500	0.000000	-0.812500	0.000000	0.000000	-0.000000	
26.728000	62.226563	769.274109	-102.461853	0.382109	0.000000	-0.587629	0.000035	1.415780	0.000005	-0.000000	-0.000000	0.000000	0.727500	0.000000	-0.812500	0.000000	0.000000	-0.000000	
26.729000	59.479980	769.274109	-102.156677	0.381149	0.000000	-0.589524	0.000007	0.383038	0.000017	-0.000000	-0.000000	0.000000	0.727500	0.000000	-0.812500	0.000000	0.000000	-0.000000	
26.730000	58.411865	772.301453	-101.088562	0.380611	0.000000	-0.586584	0.000033	-1.352227	-0.000006	-0.000000	-0.000000	0.000000	0.727500	0.000000	-0.812500	0.000000	0.000000	-0.000000	
26.731000	54.291992	775.934265	-101.851501	0.377973	0.000000	-0.588220	0.000017	-3.397321	0.000022	-0.000000	-0.000000	0.000000	0.727500	0.000000	-0.812500	0.000000	0.000000	-0.000000	
26.732000	53.834229	777.750671	-104.292908	0.376805	0.000000	-0.591532	0.000012	-3.115657	0.000025	-0.000000	-0.000000	0.000000	0.727500	0.000000	-0.812500	0.000000	0.000000	-0.000000	
